<?xml version="1.0" standalone="no"?>
<!DOCTYPE svg PUBLIC "-//W3C//DTD SVG 1.1//EN" "http://www.w3.org/Graphics/SVG/1.1/DTD/svg11.dtd" >
<svg xmlns="http://www.w3.org/2000/svg" xmlns:xlink="http://www.w3.org/1999/xlink" version="1.1">
<metadata>
Created by FontForge 20170731 at Thu Mar  8 00:41:53 2018
 By Aleksey,,,
Copyright (c) 2018 by Vladimir Nikolic. All rights reserved.
</metadata>
<defs>
<font id="SovietProgram-Regular" horiz-adv-x="760" >
  <font-face 
    font-family="Soviet Program"
    font-weight="400"
    font-stretch="normal"
    units-per-em="1000"
    panose-1="0 0 0 0 0 0 0 0 0 0"
    ascent="750"
    descent="-250"
    x-height="696"
    cap-height="697"
    bbox="-153 -230 955 935"
    underline-thickness="50"
    underline-position="-150"
    unicode-range="U+000D-007A"
  />
<missing-glyph horiz-adv-x="406" 
 />
    <glyph glyph-name=".notdef" horiz-adv-x="406" 
 />
    <glyph glyph-name=".null" horiz-adv-x="0" 
 />
    <glyph glyph-name="nonmarkingreturn" unicode="&#xd;" horiz-adv-x="406" 
 />
    <glyph glyph-name="NULL" horiz-adv-x="0" 
 />
    <glyph glyph-name="NULL" horiz-adv-x="0" 
 />
    <glyph glyph-name="space" unicode=" " horiz-adv-x="406" 
 />
    <glyph glyph-name="exclam" unicode="!" horiz-adv-x="216" 
d="M183 149v-149h-150v149h150zM183 696v-497h-150v497h150z" />
    <glyph glyph-name="quotedbl" unicode="&#x22;" horiz-adv-x="378" 
d="M172 700v-149l-45 -102h-55v102h-49v149h149zM347 700v-149l-45 -102h-55v102h-49v149h149z" />
    <glyph glyph-name="dollar" unicode="$" 
d="M181 498q0 -20 15 -35t35 -15h298q41 0 77 -15.5t63 -42.5t43 -63t16 -77q0 -79 -17 -128t-52 -76t-88.5 -36.5t-126.5 -9.5v-71h-136v71h-77q-41 0 -77.5 16t-63.5 43t-42.5 63.5t-15.5 77.5h149q0 -21 14.5 -35.5t35.5 -14.5h298q21 0 35.5 14.5t14.5 35.5q0 15 0.5 32
t-3.5 32t-14.5 25t-32.5 10h-298q-41 0 -77 16t-63 43t-43 63t-16 77t16 77t43 63t63 43t77 16h77v71h136v-71h85q41 0 77.5 -15.5t63.5 -42.5t42.5 -63.5t15.5 -77.5h-149q0 21 -14.5 35.5t-35.5 14.5h-298q-21 0 -35.5 -14.5t-14.5 -35.5z" />
    <glyph glyph-name="quotesingle" unicode="'" horiz-adv-x="195" 
d="M172 700v-149l-45 -102h-55v102h-49v149h149z" />
    <glyph glyph-name="parenleft" unicode="(" horiz-adv-x="235" 
d="M391 -80l-1 -150h-149q-41 0 -77.5 15.5t-63.5 42.5t-42.5 63.5t-15.5 77.5v767q0 41 16 77t43 63t63 43t77 16h149v-149q-19 0 -85 1t-90 -10.5t-24 -40.5v-767q0 -29 24 -40t90.5 -10t85.5 1z" />
    <glyph glyph-name="parenright" unicode=")" horiz-adv-x="238" 
d="M195 -31q0 -41 -15.5 -77t-42.5 -63t-63 -43t-77 -16h-150v149h150q20 0 34.5 15t14.5 35v767q0 20 -14.5 34.5t-34.5 14.5h-150v150h150q41 0 77 -16t63 -43t42.5 -63.5t15.5 -76.5v-767z" />
    <glyph glyph-name="comma" unicode="," horiz-adv-x="213" 
d="M179 149v-149l-45 -102h-55v102h-49v149h149z" />
    <glyph glyph-name="hyphen" unicode="-" horiz-adv-x="330" 
d="M292 321v-149h-252v149h252z" />
    <glyph glyph-name="period" unicode="." horiz-adv-x="224" 
d="M184 149v-149h-150v149h150z" />
    <glyph glyph-name="slash" unicode="/" horiz-adv-x="476" 
d="M189 0h-156l267 697h156z" />
    <glyph glyph-name="zero" unicode="0" horiz-adv-x="765" 
d="M182 199l348 348h-298q-21 0 -35.5 -14.5t-14.5 -35.5v-298zM729 199q0 -41 -16 -77t-43 -63t-63 -43t-77 -16h-298q-41 0 -77 15.5t-63 42.5t-43 63t-16 77v299q0 41 16 77t43 63t63 43t77 16h298q41 0 77 -16t63 -43t43 -63t16 -77v-298zM580 199v298l-348 -348h298
q21 0 35.5 14.5t14.5 35.5z" />
    <glyph glyph-name="one" unicode="1" horiz-adv-x="363" 
d="M329 697v-697h-149v548h-150v149h299z" />
    <glyph glyph-name="two" unicode="2" 
d="M728 149v-149h-690v199q0 41 16 77t43 63t63 43t77 16h292q22 0 32.5 10t14.5 25t3.5 32.5t-0.5 32.5q0 20 -15 34.5t-35 14.5h-292q-20 0 -35 -14.5t-15 -34.5h-149q0 41 15.5 77.5t42.5 63.5t63.5 42.5t77.5 15.5h292q57 0 95 -21t61 -55.5t33 -79.5t10 -93
q0 -41 -16 -77t-43 -63t-63 -43t-77 -16h-292q-22 0 -32.5 -10t-14.5 -25t-3.5 -32.5t0.5 -32.5h541z" />
    <glyph glyph-name="three" unicode="3" 
d="M722 199q0 -41 -15.5 -77t-42.5 -63t-63 -43t-77 -16h-489v149h245h244q21 0 31.5 10.5t14.5 25.5t3.5 32.5t-0.5 31.5q0 20 -14.5 34.5t-34.5 14.5h-343v149h343q20 0 34.5 15t14.5 35t-14.5 35t-34.5 15h-489v149h489q41 0 77 -15.5t63 -42.5t42.5 -63.5t15.5 -77.5
q0 -70 -43 -124q17 -22 26 -42t12.5 -40.5t4 -43t0.5 -48.5z" />
    <glyph glyph-name="four" unicode="4" horiz-adv-x="761" 
d="M574 249h-341q-41 0 -77 16t-63 43t-42.5 63t-15.5 77v248h149v-199q0 -14 -0.5 -31.5t3.5 -32.5t14.5 -25t31.5 -10h341v298h149v-696h-149v249z" />
    <glyph glyph-name="five" unicode="5" 
d="M723 197q0 -41 -16 -77t-43 -63t-63 -43t-77 -16h-289q-41 0 -77 16t-63 43t-43 63t-16 77h149q0 -20 15 -34.5t35 -14.5h289q22 0 32.5 10t14.5 25t3.5 32t-0.5 32q0 21 -14.5 35.5t-35.5 14.5h-289h-199v398h687v-149h-538v-100h339q57 0 95 -21t61 -55.5t33 -79.5
t10 -93z" />
    <glyph glyph-name="six" unicode="6" horiz-adv-x="765" 
d="M730 199q0 -41 -16 -77t-43 -63t-63 -43t-77 -16h-297q-41 0 -77 16t-63 43t-43 63t-16 77v298q0 41 16 77t43 63t63 43t77 16h297q41 0 77.5 -15.5t63.5 -42.5t42.5 -63.5t15.5 -77.5h-149q0 20 -15 35t-35 15h-297q-21 0 -31.5 -10t-14.5 -25t-3.5 -32.5t0.5 -31.5h346
q57 0 95 -21t61.5 -55.5t33 -79.5t9.5 -93zM581 199v50q0 20 -15 34.5t-35 14.5h-297q-20 0 -34.5 -14.5t-14.5 -34.5v-50q0 -20 14.5 -35t34.5 -15h297q20 0 35 15t15 35z" />
    <glyph glyph-name="seven" unicode="7" 
d="M720 697v-149l-341 -548h-177l341 548h-509v149h686z" />
    <glyph glyph-name="eight" unicode="8" 
d="M727 199q0 -41 -16 -77t-43 -63t-63 -43t-77 -16h-299q-57 0 -95 21t-61 55.5t-33 79.5t-10 93q0 34 11 66t33 58q-22 26 -33 58t-11 66q0 41 15.5 77.5t42.5 63.5t63.5 43t77.5 16h299q41 0 77 -16t63 -43t43 -63.5t16 -77.5q0 -34 -11.5 -66t-32.5 -58q17 -21 26 -41.5
t13 -41t4.5 -43t0.5 -48.5zM578 199v50q0 20 -15 34.5t-35 14.5h-299q-20 0 -34.5 -14.5t-14.5 -34.5v-50q0 -20 14.5 -35t34.5 -15h299q20 0 35 15t15 35zM578 497q0 20 -15 35t-35 15h-299q-20 0 -34.5 -15t-14.5 -35t14.5 -34.5t34.5 -14.5h299q20 0 35 14.5t15 34.5z
" />
    <glyph glyph-name="nine" unicode="9" 
d="M728 498v-298q0 -41 -15.5 -77.5t-42.5 -63.5t-63.5 -43t-77.5 -16h-299q-41 0 -77 16t-63 43t-42.5 63.5t-15.5 77.5h149q0 -20 14.5 -35t34.5 -15h299q22 0 32.5 10t14.5 25t3.5 32t-0.5 32h-349q-57 0 -95 21t-61 55.5t-32.5 79.5t-9.5 93q0 41 15.5 77t42.5 63t63 43
t77 16h299q41 0 77 -16t63 -43t43 -63t16 -77zM579 448v50q0 21 -14.5 35.5t-35.5 14.5h-299q-20 0 -34.5 -15t-14.5 -35v-50q0 -20 14.5 -34.5t34.5 -14.5h299q20 0 35 14.5t15 34.5z" />
    <glyph glyph-name="colon" unicode=":" horiz-adv-x="213" 
d="M180 498v-149h-150v149h150zM182 149v-149h-150v149h150z" />
    <glyph glyph-name="semicolon" unicode=";" horiz-adv-x="205" 
d="M177 149v-149l-45 -102h-55v102h-49v149h149zM178 498v-149h-150v149h150z" />
    <glyph glyph-name="question" unicode="?" horiz-adv-x="767" 
d="M730 498v-50q0 -57 -21 -95t-55.5 -61t-79.5 -33t-93 -10q-20 0 -34.5 -15t-14.5 -35h-150q0 57 21 95t55.5 61t79.5 33t93 10q20 0 35 15t15 35v50q0 20 -15 35t-35 15h-299q-20 0 -35 -15t-15 -35h-149q0 41 15.5 77.5t42.5 63.5t63.5 42.5t77.5 15.5h299q41 0 77 -16
t63 -43t43 -63t16 -77zM432 150v-150h-150v150h150z" />
    <glyph glyph-name="A" unicode="A" 
d="M725 0h-149v182h-390v-182h-150v498q0 41 16 77t43 63t63 43t77 16h291q41 0 77 -16t63 -43t43 -63t16 -77v-498zM576 331v167q0 20 -15 34.5t-35 14.5h-291q-20 0 -34.5 -14.5t-14.5 -34.5v-167h390z" />
    <glyph glyph-name="B" unicode="B" 
d="M729 199q0 -41 -16 -77t-43 -63t-63 -43t-77 -16h-497v697h497q41 0 77 -16t63 -43t43 -63t16 -77q0 -34 -11 -66.5t-32 -58.5q17 -21 26 -41.5t12.5 -41.5t4 -43.5t0.5 -47.5zM580 199v50q0 20 -15 34.5t-35 14.5h-348v-149h348q21 0 35.5 14.5t14.5 35.5zM580 498
q0 20 -15 34.5t-35 14.5h-348v-99h348q21 0 35.5 14.5t14.5 35.5z" />
    <glyph glyph-name="C" unicode="C" 
d="M729 150v-150h-498q-41 0 -77 16t-63 43t-43 63t-16 77v299q0 41 16 77t43 63t63 43t77 16h498v-149h-199h-299q-20 0 -35 -15t-15 -35v-299q0 -20 15 -34.5t35 -14.5h299h199z" />
    <glyph glyph-name="D" unicode="D" horiz-adv-x="763" 
d="M34 697h495q41 0 77 -16t63 -43t43 -63t16 -77v-299q0 -41 -16 -77t-43 -63t-63 -43t-77 -16h-495v697zM579 199v299q0 20 -15 34.5t-35 14.5h-346v-398h346q20 0 35 15t15 35z" />
    <glyph glyph-name="E" unicode="E" 
d="M33 697h691v-149h-541v-129h491v-150h-491v-119h541v-150h-691v697z" />
    <glyph glyph-name="F" unicode="F" 
d="M725 697v-149h-542v-100h446v-149h-446v-299h-149v697h691z" />
    <glyph glyph-name="G" unicode="G" 
d="M725 0h-494q-41 0 -77 16t-63 43t-43 63t-16 77v299q0 41 16 77t43 63t63 43t77 16h494v-150h-199h-295q-20 0 -35 -14.5t-15 -34.5v-299q0 -20 15 -35t35 -15h345v100h-245v149h394v-398z" />
    <glyph glyph-name="H" unicode="H" 
d="M577 298h-394v-298h-150v696h150v-249h394v249h149v-696h-149v298z" />
    <glyph glyph-name="I" unicode="I" horiz-adv-x="227" 
d="M188 0h-149v697h149v-697z" />
    <glyph glyph-name="J" unicode="J" 
d="M723 199q0 -41 -16 -77.5t-43 -63.5t-63.5 -42.5t-77.5 -15.5h-291q-57 0 -95 21t-61 55.5t-33 79.5t-10 93h149q0 -15 -0.5 -32t3.5 -32t14.5 -25t32.5 -10h291q20 0 35 14.5t15 34.5v349h-441v149h591v-498z" />
    <glyph glyph-name="K" unicode="K" 
d="M187 249v-249h-149v697h149v-299h265l112 299h160l-119 -316q54 -24 86.5 -73.5t32.5 -108.5v-199h-150v149q0 15 0.5 32.5t-3.5 32.5t-14.5 25t-32.5 10h-337z" />
    <glyph glyph-name="L" unicode="L" horiz-adv-x="631" 
d="M191 149h401v-149h-551v697h150v-548z" />
    <glyph glyph-name="M" unicode="M" horiz-adv-x="818" 
d="M778 697v-697h-149v458l-160 -207q-11 -13 -26.5 -20.5t-32.5 -7.5t-32 7.5t-26 20.5l-162 207v-458h-149v697h149l220 -280l219 280h149z" />
    <glyph glyph-name="N" unicode="N" horiz-adv-x="758" 
d="M718 697v-697h-149l-382 467v-467h-150v697h150l382 -466v466h149z" />
    <glyph glyph-name="O" unicode="O" horiz-adv-x="746" 
d="M707 497v-298q0 -41 -15.5 -77.5t-42.5 -63.5t-63.5 -42.5t-77.5 -15.5h-274q-41 0 -77.5 15.5t-63.5 42.5t-42.5 63.5t-15.5 77.5v298q0 41 15.5 77.5t42.5 63.5t63.5 42.5t77.5 15.5h274q41 0 77.5 -15.5t63.5 -42.5t42.5 -63.5t15.5 -77.5zM558 199v298q0 20 -15 35
t-35 15h-274q-20 0 -35 -15t-15 -35v-298q0 -20 15 -35t35 -15h274q20 0 35 15t15 35z" />
    <glyph glyph-name="P" unicode="P" horiz-adv-x="713" 
d="M187 249v-249h-149v697h438q57 0 95 -21t61.5 -55.5t33 -79.5t9.5 -93q0 -41 -16 -77t-43 -63t-63 -43t-77 -16h-289zM526 448v50q0 20 -15 35t-35 15h-289v-149h289q20 0 35 14.5t15 34.5z" />
    <glyph glyph-name="Q" unicode="Q" horiz-adv-x="746" 
d="M708 -90h-150v90h-228h-96q-41 0 -77 16t-63 43t-43 63t-16 77v299q0 40 16 76.5t43 63.5t63 43t77 16h275q40 0 76.5 -16t63.5 -43t43 -63.5t16 -77.5v-587zM509 149q20 0 34.5 15t14.5 35v298q0 20 -14.5 35t-34.5 15h-275q-20 0 -35 -14.5t-15 -34.5v-299
q0 -20 15 -35t35 -15h275z" />
    <glyph glyph-name="R" unicode="R" horiz-adv-x="753" 
d="M417 249h-231v-249h-149v697h483q54 0 92 -19.5t62 -52.5t35 -76.5t11 -91.5q0 -69 -36 -123t-103 -76l139 -258h-170zM570 448v50q0 20 -15 35t-35 15h-334v-150h334q21 0 35.5 14.5t14.5 35.5z" />
    <glyph glyph-name="S" unicode="S" 
d="M721 199q0 -41 -16 -77t-43 -63t-63 -43t-77 -16h-287q-41 0 -77.5 15.5t-63.5 42.5t-42.5 63.5t-15.5 77.5h149q0 -21 14.5 -35.5t35.5 -14.5h287q22 0 32.5 10t14.5 25t3.5 32.5t-0.5 32.5q0 20 -15 34.5t-35 14.5h-287q-41 0 -77.5 16t-63.5 43t-42.5 63.5t-15.5 77.5
t16 77t43 63t63 43t77 16h287q41 0 77.5 -15.5t63.5 -42.5t42.5 -63.5t15.5 -77.5h-149q0 20 -15 34.5t-35 14.5h-287q-20 0 -35 -14.5t-15 -34.5q0 -32 23.5 -44.5t143 -11t182.5 -0.5t101.5 -29.5t62 -78t23.5 -135.5z" />
    <glyph glyph-name="T" unicode="T" horiz-adv-x="748" 
d="M722 696v-149h-274v-547h-149v547h-274v149h697z" />
    <glyph glyph-name="U" unicode="U" 
d="M717 199q0 -41 -16 -77t-43 -63t-63 -43t-77 -16h-278q-41 0 -77 16t-63 43t-43 63t-16 77v498h149v-498q0 -20 15 -35t35 -15h278q20 0 34.5 15t14.5 35v498h150v-498z" />
    <glyph glyph-name="V" unicode="V" horiz-adv-x="706" 
d="M666 697v-322q0 -46 -11.5 -86t-39.5 -83t-73.5 -92.5t-114.5 -113.5h-73h-1h-73q-69 64 -114.5 113.5t-73.5 92.5t-39.5 83t-11.5 86v322h150v-318q3 -27 11 -52.5t26.5 -53.5t48.5 -61.5t76 -76.5q46 43 76.5 76.5t49 61.5t26.5 53.5t11 52.5v318h150z" />
    <glyph glyph-name="W" unicode="W" horiz-adv-x="993" 
d="M188 149h240v547h150v-547h228v547h149v-696h-916v696h149v-547z" />
    <glyph glyph-name="X" unicode="X" horiz-adv-x="748" 
d="M465 355l259 -355h-185l-167 228l-166 -228h-185l259 355l-250 342h185l157 -216l157 216h186z" />
    <glyph glyph-name="Y" unicode="Y" horiz-adv-x="764" 
d="M580 249h-349q-41 0 -77 16t-63 43t-42.5 63t-15.5 77v248h149v-198q0 -14 -0.5 -31.5t3.5 -32.5t14.5 -25.5t31.5 -10.5h349v298h149v-497q0 -41 -16 -77t-43 -63t-63 -43t-77 -16h-425v149h425q22 0 32.5 10t14.5 25t3.5 32.5t-0.5 32.5z" />
    <glyph glyph-name="Z" unicode="Z" horiz-adv-x="770" 
d="M733 0h-697v149l467 398h-467v149h697v-149l-467 -398h467v-149z" />
    <glyph glyph-name="a" unicode="a" 
d="M725 0h-149v182h-390v-182h-150v498q0 41 16 77t43 63t63 43t77 16h291q41 0 77 -16t63 -43t43 -63t16 -77v-498zM576 331v167q0 20 -15 34.5t-35 14.5h-291q-20 0 -34.5 -14.5t-14.5 -34.5v-167h390z" />
    <glyph glyph-name="b" unicode="b" 
d="M729 199q0 -41 -16 -77t-43 -63t-63 -43t-77 -16h-497v697h497q41 0 77 -16t63 -43t43 -63t16 -77q0 -34 -11 -66.5t-32 -58.5q17 -21 26 -41.5t12.5 -41.5t4 -43.5t0.5 -47.5zM580 199v50q0 20 -15 34.5t-35 14.5h-348v-149h348q21 0 35.5 14.5t14.5 35.5zM580 498
q0 20 -15 34.5t-35 14.5h-348v-99h348q21 0 35.5 14.5t14.5 35.5z" />
    <glyph glyph-name="c" unicode="c" 
d="M729 150v-150h-498q-41 0 -77 16t-63 43t-43 63t-16 77v299q0 41 16 77t43 63t63 43t77 16h498v-149h-199h-299q-20 0 -35 -15t-15 -35v-299q0 -20 15 -34.5t35 -14.5h299h199z" />
    <glyph glyph-name="d" unicode="d" horiz-adv-x="763" 
d="M34 697h495q41 0 77 -16t63 -43t43 -63t16 -77v-299q0 -41 -16 -77t-43 -63t-63 -43t-77 -16h-495v697zM579 199v299q0 20 -15 34.5t-35 14.5h-346v-398h346q20 0 35 15t15 35z" />
    <glyph glyph-name="e" unicode="e" horiz-adv-x="775" 
d="M737 0h-702v149h552v129h-500v150h500v119h-552v150h702v-697z" />
    <glyph glyph-name="f" unicode="f" horiz-adv-x="770" 
d="M735 436h-151v112h-397v-548h-149v697h697v-261z" />
    <glyph glyph-name="g" unicode="g" 
d="M725 0h-494q-41 0 -77 16t-63 43t-43 63t-16 77v299q0 41 16 77t43 63t63 43t77 16h494v-150h-199h-295q-20 0 -35 -14.5t-15 -34.5v-299q0 -20 15 -35t35 -15h345v100h-245v149h394v-398z" />
    <glyph glyph-name="h" unicode="h" 
d="M577 298h-394v-298h-150v696h150v-249h394v249h149v-696h-149v298z" />
    <glyph glyph-name="i" unicode="i" horiz-adv-x="228" 
d="M188 0h-149v486h149v-486zM113 691l29 -61l66 -9l-47 -47l11 -65l-59 31l-58 -31l10 65l-48 47l65 9z" />
    <glyph glyph-name="j" unicode="j" 
d="M723 199q0 -41 -16 -77.5t-43 -63.5t-63.5 -42.5t-77.5 -15.5h-291q-57 0 -95 21t-61 55.5t-33 79.5t-10 93h149q0 -15 -0.5 -32t3.5 -32t14.5 -25t32.5 -10h291q20 0 35 14.5t15 34.5v349h-441v149h591v-498z" />
    <glyph glyph-name="k" unicode="k" horiz-adv-x="767" 
d="M582 249h-348q-22 0 -32.5 -10t-14.5 -25t-3.5 -32.5t0.5 -32.5v-149h-149v199q0 59 32 108.5t86 73.5l-118 316h159l112 -299h276v299h149v-697h-149v249z" />
    <glyph glyph-name="l" unicode="l" horiz-adv-x="631" 
d="M191 149h401v-149h-551v697h150v-548z" />
    <glyph glyph-name="m" unicode="m" horiz-adv-x="818" 
d="M778 697v-697h-149v458l-160 -207q-11 -13 -26.5 -20.5t-32.5 -7.5t-32 7.5t-26 20.5l-162 207v-458h-149v697h149l220 -280l219 280h149z" />
    <glyph glyph-name="n" unicode="n" horiz-adv-x="773" 
d="M735 697v-697h-150v467l-398 -467h-149v697h149v-467l398 467h150z" />
    <glyph glyph-name="o" unicode="o" horiz-adv-x="746" 
d="M707 497v-298q0 -41 -15.5 -77.5t-42.5 -63.5t-63.5 -42.5t-77.5 -15.5h-274q-41 0 -77.5 15.5t-63.5 42.5t-42.5 63.5t-15.5 77.5v298q0 41 15.5 77.5t42.5 63.5t63.5 42.5t77.5 15.5h274q41 0 77.5 -15.5t63.5 -42.5t42.5 -63.5t15.5 -77.5zM558 199v298q0 20 -15 35
t-35 15h-274q-20 0 -35 -15t-15 -35v-298q0 -20 15 -35t35 -15h274q20 0 35 15t15 35zM374 516l49 -109l112 -15l-79 -82l18 -116l-100 55l-100 -55l17 116l-81 82l111 15z" />
    <glyph glyph-name="p" unicode="p" horiz-adv-x="713" 
d="M187 249v-249h-149v697h444q57 0 95 -21t61.5 -55.5t33 -79.5t9.5 -93q0 -41 -16 -77t-43 -63t-63 -43t-77 -16h-295zM532 448v50q0 20 -15 35t-35 15h-295v-149h295q20 0 35 14.5t15 34.5z" />
    <glyph glyph-name="q" unicode="q" horiz-adv-x="765" 
d="M730 -90h-150v90h-242h-106q-41 0 -77 16t-63 43t-43 63t-16 77v299q0 40 16 76.5t43 63.5t63 43t77 16h299q40 0 76.5 -16t63.5 -43t43 -63.5t16 -77.5v-587zM531 149q20 0 34.5 15t14.5 35v298q0 20 -14.5 35t-34.5 15h-299q-20 0 -35 -14.5t-15 -34.5v-299
q0 -20 15 -35t35 -15h299zM382 520l53 -112l120 -16l-85 -85l19 -119l-107 56l-106 -56l18 119l-87 85l119 16z" />
    <glyph glyph-name="r" unicode="r" horiz-adv-x="768" 
d="M335 248l-134 -248h-169l138 258q-44 14 -71 38t-42 55t-20 68t-5 78t16 77t43 63t63 43t77 16h498v-696h-150v248h-244zM579 397v150h-348q-20 0 -34.5 -15t-14.5 -35v-50q0 -20 14.5 -35t34.5 -15h348z" />
    <glyph glyph-name="s" unicode="s" 
d="M721 199q0 -41 -16 -77t-43 -63t-63 -43t-77 -16h-287q-41 0 -77.5 15.5t-63.5 42.5t-42.5 63.5t-15.5 77.5h149q0 -21 14.5 -35.5t35.5 -14.5h287q22 0 32.5 10t14.5 25t3.5 32.5t-0.5 32.5q0 20 -15 34.5t-35 14.5h-287q-41 0 -77.5 16t-63.5 43t-42.5 63.5t-15.5 77.5
t16 77t43 63t63 43t77 16h287q41 0 77.5 -15.5t63.5 -42.5t42.5 -63.5t15.5 -77.5h-149q0 20 -15 34.5t-35 14.5h-287q-20 0 -35 -14.5t-15 -34.5q0 -32 23.5 -44.5t143 -11t182.5 -0.5t101.5 -29.5t62 -78t23.5 -135.5z" />
    <glyph glyph-name="t" unicode="t" horiz-adv-x="748" 
d="M722 696v-149h-274v-547h-149v547h-274v149h697z" />
    <glyph glyph-name="u" unicode="u" 
d="M717 199q0 -41 -16 -77t-43 -63t-63 -43t-77 -16h-278q-41 0 -77 16t-63 43t-43 63t-16 77v498h149v-498q0 -20 15 -35t35 -15h278q20 0 34.5 15t14.5 35v498h150v-498z" />
    <glyph glyph-name="v" unicode="v" horiz-adv-x="706" 
d="M666 697v-322q0 -46 -11.5 -86t-39.5 -83t-73.5 -92.5t-114.5 -113.5h-73h-1h-73q-69 64 -114.5 113.5t-73.5 92.5t-39.5 83t-11.5 86v322h150v-318q3 -27 11 -52.5t26.5 -53.5t48.5 -61.5t76 -76.5q46 43 76.5 76.5t49 61.5t26.5 53.5t11 52.5v318h150z" />
    <glyph glyph-name="w" unicode="w" horiz-adv-x="993" 
d="M188 149h240v547h150v-547h228v547h149v-696h-916v696h149v-547z" />
    <glyph glyph-name="x" unicode="x" horiz-adv-x="748" 
d="M465 355l259 -355h-185l-167 228l-166 -228h-185l259 355l-250 342h185l157 -216l157 216h186z" />
    <glyph glyph-name="y" unicode="y" horiz-adv-x="764" 
d="M580 249h-349q-41 0 -77 16t-63 43t-42.5 63t-15.5 77v248h149v-198q0 -14 -0.5 -31.5t3.5 -32.5t14.5 -25.5t31.5 -10.5h349v298h149v-497q0 -41 -16 -77t-43 -63t-63 -43t-77 -16h-425v149h425q22 0 32.5 10t14.5 25t3.5 32.5t-0.5 32.5z" />
    <glyph glyph-name="z" unicode="z" horiz-adv-x="770" 
d="M733 0h-697v149l467 398h-467v149h697v-149l-467 -398h467v-149z" />
  </font>
</defs>
</svg>
